<svg width="464" height="461" viewBox="0 0 464 461" fill="none" xmlns="http://www.w3.org/2000/svg">
<path d="M244.941 35.1289C244.941 38.0098 244.713 40.5895 244.257 42.8682C243.818 45.1305 243.118 47.0511 242.158 48.6299C241.197 50.2087 239.944 51.4131 238.398 52.2432C236.852 53.0732 234.98 53.4883 232.783 53.4883C230.032 53.4883 227.761 52.764 225.971 51.3154C224.181 49.8506 222.854 47.751 221.992 45.0166C221.129 42.266 220.698 38.9701 220.698 35.1289C220.698 31.2878 221.088 28 221.87 25.2656C222.667 22.515 223.953 20.4072 225.727 18.9424C227.501 17.4775 229.853 16.7451 232.783 16.7451C235.55 16.7451 237.828 17.4775 239.619 18.9424C241.425 20.391 242.76 22.4906 243.622 25.2412C244.501 27.9756 244.941 31.2715 244.941 35.1289ZM226.484 35.1289C226.484 38.14 226.679 40.6546 227.07 42.6729C227.477 44.6911 228.144 46.2048 229.072 47.2139C229.999 48.2067 231.236 48.7031 232.783 48.7031C234.329 48.7031 235.566 48.2067 236.494 47.2139C237.421 46.221 238.089 44.7155 238.496 42.6973C238.919 40.679 239.13 38.1562 239.13 35.1289C239.13 32.1341 238.927 29.6276 238.52 27.6094C238.113 25.5911 237.446 24.0775 236.518 23.0684C235.59 22.043 234.345 21.5303 232.783 21.5303C231.22 21.5303 229.975 22.043 229.047 23.0684C228.136 24.0775 227.477 25.5911 227.07 27.6094C226.679 29.6276 226.484 32.1341 226.484 35.1289Z" fill="#7DC0EB"/>
<path d="M334.931 77.9463H329.17V54.9727C329.17 54.2077 329.178 53.4427 329.194 52.6777C329.21 51.9128 329.227 51.1641 329.243 50.4316C329.276 49.6992 329.316 48.9993 329.365 48.332C329.023 48.7064 328.6 49.1133 328.096 49.5527C327.607 49.9922 327.086 50.4479 326.533 50.9199L322.431 54.1914L319.551 50.5537L330.146 42.2529H334.931V77.9463Z" fill="#7DC0EB"/>
<path d="M409.586 147.796H385.416V143.474L394.669 134.099C396.459 132.276 397.932 130.706 399.088 129.387C400.244 128.053 401.098 126.791 401.652 125.603C402.221 124.415 402.506 123.121 402.506 121.721C402.506 119.996 402.01 118.694 401.017 117.815C400.024 116.92 398.714 116.472 397.086 116.472C395.54 116.472 394.108 116.782 392.789 117.4C391.487 118.002 390.136 118.865 388.737 119.988L385.587 116.204C386.58 115.358 387.638 114.584 388.761 113.885C389.9 113.185 391.17 112.631 392.57 112.224C393.969 111.801 395.564 111.59 397.355 111.59C399.617 111.59 401.57 111.997 403.214 112.81C404.858 113.608 406.119 114.723 406.998 116.155C407.893 117.587 408.341 119.256 408.341 121.16C408.341 123.08 407.959 124.855 407.194 126.482C406.429 128.11 405.338 129.721 403.922 131.316C402.506 132.895 400.821 134.612 398.868 136.468L392.692 142.498V142.766H409.586V147.796Z" fill="#7DC0EB"/>
<path d="M442.312 220.042C442.312 221.653 441.987 223.053 441.336 224.241C440.684 225.429 439.789 226.406 438.65 227.171C437.527 227.919 436.225 228.456 434.744 228.782V228.953C437.592 229.311 439.74 230.206 441.189 231.638C442.654 233.071 443.386 234.967 443.386 237.327C443.386 239.394 442.89 241.241 441.897 242.869C440.904 244.48 439.382 245.75 437.332 246.677C435.281 247.605 432.644 248.069 429.421 248.069C427.485 248.069 425.686 247.914 424.026 247.605C422.382 247.296 420.82 246.799 419.338 246.116V241.013C420.852 241.762 422.463 242.34 424.172 242.747C425.881 243.154 427.501 243.357 429.031 243.357C432.009 243.357 434.133 242.804 435.403 241.697C436.672 240.574 437.307 239.028 437.307 237.058C437.307 235.789 436.974 234.747 436.306 233.933C435.655 233.119 434.638 232.509 433.254 232.102C431.887 231.695 430.121 231.492 427.957 231.492H424.807V226.878H427.981C430.048 226.878 431.708 226.633 432.961 226.145C434.215 225.641 435.118 224.949 435.671 224.07C436.241 223.191 436.526 222.166 436.526 220.994C436.526 219.464 436.03 218.276 435.037 217.429C434.044 216.567 432.571 216.135 430.618 216.135C429.413 216.135 428.315 216.274 427.322 216.55C426.345 216.827 425.442 217.177 424.612 217.6C423.782 218.023 422.992 218.479 422.244 218.967L419.485 214.988C420.836 213.979 422.447 213.124 424.319 212.424C426.191 211.725 428.372 211.375 430.862 211.375C434.524 211.375 437.348 212.164 439.334 213.743C441.319 215.305 442.312 217.405 442.312 220.042Z" fill="#7DC0EB"/>
<path d="M410.88 351.17H406.046V359.007H400.382V351.17H384.147V346.825L400.455 323.216H406.046V346.41H410.88V351.17ZM400.382 346.41V337.547C400.382 336.815 400.39 336.074 400.406 335.326C400.439 334.561 400.472 333.828 400.504 333.128C400.537 332.428 400.569 331.786 400.602 331.2C400.634 330.597 400.659 330.101 400.675 329.71H400.48C400.17 330.361 399.829 331.029 399.454 331.712C399.08 332.38 398.681 333.031 398.258 333.665L389.469 346.41H400.382Z" fill="#7DC0EB"/>
<path d="M330.195 412.363C332.49 412.363 334.508 412.778 336.25 413.608C338.008 414.422 339.375 415.626 340.351 417.221C341.328 418.8 341.816 420.737 341.816 423.032C341.816 425.538 341.287 427.703 340.229 429.526C339.171 431.333 337.617 432.724 335.566 433.701C333.515 434.677 331.017 435.166 328.071 435.166C326.199 435.166 324.45 435.003 322.822 434.677C321.211 434.352 319.819 433.864 318.647 433.213V428.037C319.868 428.72 321.333 429.282 323.042 429.721C324.751 430.145 326.387 430.356 327.949 430.356C329.609 430.356 331.033 430.112 332.221 429.624C333.41 429.135 334.321 428.387 334.956 427.378C335.607 426.369 335.932 425.091 335.932 423.545C335.932 421.494 335.273 419.915 333.955 418.808C332.653 417.685 330.61 417.124 327.827 417.124C326.85 417.124 325.809 417.213 324.702 417.392C323.611 417.555 322.7 417.734 321.968 417.929L319.453 416.44L320.796 398.984H339.35V404.038H325.849L325.068 412.924C325.654 412.794 326.354 412.672 327.168 412.558C327.982 412.428 328.991 412.363 330.195 412.363Z" fill="#7DC0EB"/>
<path d="M220.82 444.414C220.82 442.314 220.966 440.247 221.259 438.213C221.568 436.178 222.089 434.274 222.822 432.5C223.554 430.726 224.563 429.163 225.849 427.812C227.151 426.461 228.787 425.403 230.756 424.638C232.726 423.857 235.094 423.466 237.861 423.466C238.577 423.466 239.383 423.499 240.278 423.564C241.173 423.629 241.914 423.735 242.499 423.881V428.642C241.865 428.463 241.165 428.325 240.4 428.227C239.651 428.13 238.902 428.081 238.154 428.081C235.159 428.081 232.823 428.65 231.147 429.79C229.47 430.913 228.274 432.459 227.558 434.428C226.842 436.381 226.427 438.619 226.313 441.142H226.606C227.094 440.328 227.705 439.604 228.437 438.969C229.169 438.335 230.065 437.83 231.122 437.456C232.18 437.065 233.409 436.87 234.809 436.87C236.892 436.87 238.707 437.309 240.253 438.188C241.8 439.051 242.988 440.304 243.818 441.948C244.664 443.592 245.087 445.586 245.087 447.929C245.087 450.452 244.607 452.625 243.647 454.448C242.703 456.271 241.352 457.671 239.594 458.647C237.853 459.624 235.777 460.112 233.369 460.112C231.594 460.112 229.942 459.786 228.413 459.135C226.899 458.484 225.572 457.508 224.433 456.206C223.294 454.904 222.407 453.276 221.772 451.323C221.137 449.353 220.82 447.05 220.82 444.414ZM233.271 455.376C235.126 455.376 236.616 454.773 237.739 453.569C238.878 452.348 239.448 450.485 239.448 447.978C239.448 445.944 238.943 444.332 237.934 443.144C236.941 441.956 235.444 441.362 233.442 441.362C232.075 441.362 230.878 441.655 229.853 442.241C228.828 442.827 228.03 443.567 227.46 444.463C226.907 445.358 226.63 446.269 226.63 447.197C226.63 448.141 226.769 449.093 227.045 450.053C227.322 451.014 227.737 451.901 228.29 452.714C228.844 453.512 229.536 454.155 230.366 454.643C231.196 455.131 232.164 455.376 233.271 455.376Z" fill="#7DC0EB"/>
<path d="M120.074 434.677L134.088 404.013H115.557V398.984H140.264V402.915L126.251 434.677H120.074Z" fill="#7DC0EB"/>
<path d="M55.6889 322.826C57.756 322.826 59.6196 323.151 61.2797 323.802C62.9399 324.437 64.2582 325.389 65.2348 326.659C66.2114 327.928 66.6996 329.499 66.6996 331.37C66.6996 332.819 66.3985 334.08 65.7963 335.155C65.2104 336.229 64.4129 337.173 63.4037 337.987C62.3946 338.784 61.2634 339.492 60.0102 340.111C61.4099 340.794 62.6957 341.584 63.8676 342.479C65.0558 343.358 66.0079 344.391 66.7241 345.579C67.4565 346.768 67.8227 348.159 67.8227 349.754C67.8227 351.756 67.31 353.49 66.2846 354.954C65.2755 356.403 63.8676 357.526 62.061 358.324C60.2543 359.105 58.1466 359.495 55.7377 359.495C53.1498 359.495 50.9444 359.113 49.1215 358.348C47.2986 357.583 45.9151 356.493 44.9711 355.077C44.0271 353.644 43.5551 351.935 43.5551 349.95C43.5551 348.306 43.8806 346.882 44.5317 345.677C45.1827 344.473 46.0535 343.431 47.144 342.552C48.2507 341.673 49.4633 340.933 50.7817 340.33C49.6586 339.663 48.6332 338.914 47.7055 338.084C46.7778 337.238 46.0372 336.27 45.4838 335.179C44.9467 334.072 44.6782 332.795 44.6782 331.346C44.6782 329.491 45.1746 327.936 46.1674 326.683C47.1603 325.413 48.4867 324.453 50.1469 323.802C51.8233 323.151 53.6707 322.826 55.6889 322.826ZM49.0239 349.73C49.0239 351.292 49.5772 352.578 50.684 353.587C51.7908 354.596 53.4428 355.101 55.6401 355.101C57.8211 355.101 59.4812 354.605 60.6205 353.612C61.7599 352.619 62.3295 351.309 62.3295 349.681C62.3295 348.639 62.0366 347.72 61.4506 346.922C60.881 346.125 60.1078 345.417 59.1313 344.798C58.171 344.163 57.1049 343.578 55.933 343.04L55.1518 342.723C53.8823 343.26 52.7918 343.87 51.8803 344.554C50.9688 345.221 50.2608 345.978 49.7563 346.825C49.268 347.671 49.0239 348.639 49.0239 349.73ZM55.6401 327.245C54.0613 327.245 52.7592 327.635 51.7338 328.416C50.7247 329.181 50.2201 330.288 50.2201 331.737C50.2201 332.762 50.4643 333.641 50.9526 334.373C51.4571 335.106 52.1326 335.741 52.9789 336.278C53.8253 336.799 54.7612 337.287 55.7866 337.743C56.7794 337.303 57.6746 336.823 58.4721 336.302C59.2859 335.765 59.9288 335.13 60.4008 334.398C60.8891 333.649 61.1332 332.754 61.1332 331.712C61.1332 330.28 60.6205 329.181 59.5951 328.416C58.586 327.635 57.2677 327.245 55.6401 327.245Z" fill="#7DC0EB"/>
<path d="M44.4907 227.097C44.4907 229.213 44.336 231.288 44.0268 233.323C43.7338 235.357 43.213 237.262 42.4643 239.036C41.7319 240.81 40.7146 242.38 39.4125 243.748C38.1267 245.099 36.4991 246.157 34.5297 246.922C32.5603 247.686 30.184 248.069 27.4008 248.069C26.7009 248.069 25.8871 248.028 24.9594 247.947C24.0479 247.882 23.2992 247.784 22.7133 247.654V242.869C23.3318 243.048 24.0235 243.194 24.7885 243.308C25.5698 243.406 26.3429 243.455 27.1078 243.455C30.1189 243.455 32.4627 242.893 34.1391 241.77C35.8318 240.647 37.0281 239.101 37.728 237.131C38.4441 235.162 38.851 232.924 38.9487 230.418H38.6557C38.1837 231.199 37.5896 231.915 36.8735 232.566C36.1573 233.201 35.2703 233.714 34.2123 234.104C33.1544 234.478 31.8686 234.666 30.3549 234.666C28.3041 234.666 26.5138 234.234 24.9838 233.372C23.4701 232.509 22.2901 231.256 21.4438 229.612C20.6137 227.952 20.1987 225.958 20.1987 223.63C20.1987 221.108 20.6788 218.935 21.6391 217.112C22.5994 215.289 23.9584 213.889 25.7162 212.913C27.4741 211.92 29.5411 211.423 31.9174 211.423C33.7078 211.423 35.3598 211.749 36.8735 212.4C38.4034 213.035 39.738 214.011 40.8774 215.33C42.0167 216.632 42.9037 218.268 43.5385 220.237C44.1733 222.19 44.4907 224.477 44.4907 227.097ZM31.9907 216.16C30.184 216.16 28.711 216.77 27.5717 217.991C26.4324 219.195 25.8627 221.051 25.8627 223.557C25.8627 225.592 26.351 227.203 27.3276 228.391C28.3041 229.579 29.8015 230.173 31.8198 230.173C33.2195 230.173 34.4239 229.889 35.433 229.319C36.4584 228.733 37.2478 227.992 37.8012 227.097C38.3709 226.202 38.6557 225.291 38.6557 224.363C38.6557 223.403 38.5173 222.442 38.2407 221.482C37.9802 220.522 37.5733 219.643 37.02 218.845C36.4666 218.048 35.7667 217.405 34.9203 216.917C34.0903 216.412 33.1137 216.16 31.9907 216.16Z" fill="#7DC0EB"/>
<path d="M46.2162 153.616H40.4545V130.643C40.4545 129.878 40.4627 129.113 40.4789 128.348C40.4952 127.583 40.5115 126.834 40.5278 126.102C40.5603 125.369 40.601 124.67 40.6498 124.002C40.308 124.377 39.8849 124.783 39.3803 125.223C38.892 125.662 38.3712 126.118 37.8178 126.59L33.7162 129.862L30.8354 126.224L41.4311 117.923H46.2162V153.616ZM82.1293 135.745C82.1293 138.626 81.9015 141.206 81.4457 143.485C81.0063 145.747 80.3064 147.668 79.3461 149.246C78.3858 150.825 77.1326 152.03 75.5864 152.86C74.0401 153.69 72.1684 154.105 69.9711 154.105C67.2205 154.105 64.95 153.38 63.1596 151.932C61.3692 150.467 60.0427 148.367 59.1801 145.633C58.3175 142.882 57.8862 139.587 57.8862 135.745C57.8862 131.904 58.2768 128.616 59.058 125.882C59.8556 123.131 61.1414 121.024 62.9155 119.559C64.6895 118.094 67.0414 117.362 69.9711 117.362C72.738 117.362 75.0167 118.094 76.8071 119.559C78.6137 121.007 79.9483 123.107 80.811 125.858C81.6899 128.592 82.1293 131.888 82.1293 135.745ZM63.6723 135.745C63.6723 138.756 63.8676 141.271 64.2582 143.289C64.6651 145.308 65.3325 146.821 66.2602 147.83C67.1879 148.823 68.4249 149.32 69.9711 149.32C71.5173 149.32 72.7543 148.823 73.6821 147.83C74.6098 146.837 75.2771 145.332 75.684 143.314C76.1072 141.295 76.3188 138.773 76.3188 135.745C76.3188 132.751 76.1153 130.244 75.7084 128.226C75.3015 126.208 74.6342 124.694 73.7065 123.685C72.7787 122.659 71.5336 122.147 69.9711 122.147C68.4086 122.147 67.1635 122.659 66.2358 123.685C65.3243 124.694 64.6651 126.208 64.2582 128.226C63.8676 130.244 63.6723 132.751 63.6723 135.745Z" fill="#7DC0EB"/>
<path d="M120.223 77.9463H114.462V54.9727C114.462 54.2077 114.47 53.4427 114.486 52.6777C114.502 51.9128 114.519 51.1641 114.535 50.4316C114.567 49.6992 114.608 48.9993 114.657 48.332C114.315 48.7064 113.892 49.1133 113.387 49.5527C112.899 49.9922 112.378 50.4479 111.825 50.9199L107.723 54.1914L104.842 50.5537L115.438 42.2529H120.223V77.9463ZM148.837 77.9463H143.075V54.9727C143.075 54.2077 143.083 53.4427 143.099 52.6777C143.116 51.9128 143.132 51.1641 143.148 50.4316C143.181 49.6992 143.221 48.9993 143.27 48.332C142.928 48.7064 142.505 49.1133 142.001 49.5527C141.512 49.9922 140.992 50.4479 140.438 50.9199L136.337 54.1914L133.456 50.5537L144.051 42.2529H148.837V77.9463Z" fill="#7DC0EB"/>
</svg>
