<svg width="816" height="803" viewBox="0 0 816 803" fill="none" xmlns="http://www.w3.org/2000/svg">
<path d="M421.609 35.1289C421.609 38.0098 421.382 40.5895 420.926 42.8682C420.486 45.1305 419.786 47.0511 418.826 48.6299C417.866 50.2087 416.613 51.4131 415.066 52.2432C413.52 53.0732 411.648 53.4883 409.451 53.4883C406.701 53.4883 404.43 52.764 402.64 51.3154C400.849 49.8506 399.523 47.751 398.66 45.0166C397.798 42.266 397.366 38.9701 397.366 35.1289C397.366 31.2878 397.757 28 398.538 25.2656C399.336 22.515 400.621 20.4072 402.396 18.9424C404.17 17.4775 406.521 16.7451 409.451 16.7451C412.218 16.7451 414.497 17.4775 416.287 18.9424C418.094 20.391 419.428 22.4906 420.291 25.2412C421.17 27.9756 421.609 31.2715 421.609 35.1289ZM403.152 35.1289C403.152 38.14 403.348 40.6546 403.738 42.6729C404.145 44.6911 404.812 46.2048 405.74 47.2139C406.668 48.2067 407.905 48.7031 409.451 48.7031C410.997 48.7031 412.234 48.2067 413.162 47.2139C414.09 46.221 414.757 44.7155 415.164 42.6973C415.587 40.679 415.799 38.1562 415.799 35.1289C415.799 32.1341 415.595 29.6276 415.188 27.6094C414.782 25.5911 414.114 24.0775 413.187 23.0684C412.259 22.043 411.014 21.5303 409.451 21.5303C407.889 21.5303 406.644 22.043 405.716 23.0684C404.804 24.0775 404.145 25.5911 403.738 27.6094C403.348 29.6276 403.152 32.1341 403.152 35.1289Z" fill="#E0F3FF"/>
<path d="M580.573 74.6855C582.868 74.6855 584.886 75.1006 586.628 75.9307C588.386 76.7445 589.753 77.9489 590.729 79.5439C591.706 81.1227 592.194 83.0596 592.194 85.3545C592.194 87.861 591.665 90.0257 590.607 91.8486C589.549 93.6553 587.995 95.0469 585.944 96.0234C583.894 97 581.395 97.4883 578.449 97.4883C576.577 97.4883 574.828 97.3255 573.2 97C571.589 96.6745 570.197 96.1862 569.025 95.5352V90.3594C570.246 91.043 571.711 91.6045 573.42 92.0439C575.129 92.4671 576.765 92.6787 578.327 92.6787C579.987 92.6787 581.411 92.4346 582.6 91.9463C583.788 91.458 584.699 90.7093 585.334 89.7002C585.985 88.6911 586.311 87.4134 586.311 85.8672C586.311 83.8164 585.651 82.2376 584.333 81.1309C583.031 80.0078 580.988 79.4463 578.205 79.4463C577.229 79.4463 576.187 79.5358 575.08 79.7148C573.99 79.8776 573.078 80.0566 572.346 80.252L569.831 78.7627L571.174 61.3066H589.729V66.3604H576.228L575.446 75.2471C576.032 75.1169 576.732 74.9948 577.546 74.8809C578.36 74.7507 579.369 74.6855 580.573 74.6855Z" fill="#E0F3FF"/>
<path d="M689.003 220H683.241V197.026C683.241 196.261 683.249 195.496 683.266 194.731C683.282 193.966 683.298 193.218 683.314 192.485C683.347 191.753 683.388 191.053 683.437 190.386C683.095 190.76 682.672 191.167 682.167 191.606C681.679 192.046 681.158 192.502 680.604 192.974L676.503 196.245L673.622 192.607L684.218 184.307H689.003V220ZM724.916 202.129C724.916 205.01 724.688 207.59 724.232 209.868C723.793 212.131 723.093 214.051 722.133 215.63C721.173 217.209 719.919 218.413 718.373 219.243C716.827 220.073 714.955 220.488 712.758 220.488C710.007 220.488 707.737 219.764 705.946 218.315C704.156 216.851 702.829 214.751 701.967 212.017C701.104 209.266 700.673 205.97 700.673 202.129C700.673 198.288 701.063 195 701.845 192.266C702.642 189.515 703.928 187.407 705.702 185.942C707.476 184.478 709.828 183.745 712.758 183.745C715.525 183.745 717.803 184.478 719.594 185.942C721.4 187.391 722.735 189.491 723.598 192.241C724.477 194.976 724.916 198.271 724.916 202.129ZM706.459 202.129C706.459 205.14 706.654 207.655 707.045 209.673C707.452 211.691 708.119 213.205 709.047 214.214C709.975 215.207 711.212 215.703 712.758 215.703C714.304 215.703 715.541 215.207 716.469 214.214C717.396 213.221 718.064 211.715 718.471 209.697C718.894 207.679 719.105 205.156 719.105 202.129C719.105 199.134 718.902 196.628 718.495 194.609C718.088 192.591 717.421 191.077 716.493 190.068C715.565 189.043 714.32 188.53 712.758 188.53C711.195 188.53 709.95 189.043 709.022 190.068C708.111 191.077 707.452 192.591 707.045 194.609C706.654 196.628 706.459 199.134 706.459 202.129Z" fill="#E0F3FF"/>
<path d="M749.503 396H743.741V373.026C743.741 372.261 743.749 371.496 743.766 370.731C743.782 369.966 743.798 369.218 743.814 368.485C743.847 367.753 743.888 367.053 743.937 366.386C743.595 366.76 743.172 367.167 742.667 367.606C742.179 368.046 741.658 368.502 741.104 368.974L737.003 372.245L734.122 368.607L744.718 360.307H749.503V396ZM773.38 373.686C775.675 373.686 777.693 374.101 779.435 374.931C781.192 375.744 782.56 376.949 783.536 378.544C784.513 380.123 785.001 382.06 785.001 384.354C785.001 386.861 784.472 389.026 783.414 390.849C782.356 392.655 780.802 394.047 778.751 395.023C776.7 396 774.202 396.488 771.256 396.488C769.384 396.488 767.634 396.326 766.007 396C764.396 395.674 763.004 395.186 761.832 394.535V389.359C763.053 390.043 764.518 390.604 766.227 391.044C767.936 391.467 769.571 391.679 771.134 391.679C772.794 391.679 774.218 391.435 775.406 390.946C776.594 390.458 777.506 389.709 778.141 388.7C778.792 387.691 779.117 386.413 779.117 384.867C779.117 382.816 778.458 381.238 777.14 380.131C775.838 379.008 773.795 378.446 771.012 378.446C770.035 378.446 768.993 378.536 767.887 378.715C766.796 378.878 765.885 379.057 765.152 379.252L762.638 377.763L763.98 360.307H782.535V365.36H769.034L768.253 374.247C768.839 374.117 769.539 373.995 770.353 373.881C771.166 373.751 772.175 373.686 773.38 373.686Z" fill="#E0F3FF"/>
<path d="M696.303 592H672.133V587.679L681.386 578.304C683.176 576.481 684.649 574.91 685.805 573.592C686.96 572.257 687.815 570.996 688.368 569.808C688.938 568.619 689.223 567.326 689.223 565.926C689.223 564.201 688.726 562.898 687.733 562.02C686.741 561.124 685.43 560.677 683.803 560.677C682.257 560.677 680.824 560.986 679.506 561.604C678.204 562.207 676.853 563.069 675.453 564.192L672.304 560.408C673.297 559.562 674.354 558.789 675.478 558.089C676.617 557.389 677.886 556.836 679.286 556.429C680.686 556.006 682.281 555.794 684.071 555.794C686.334 555.794 688.287 556.201 689.931 557.015C691.575 557.812 692.836 558.927 693.715 560.359C694.61 561.792 695.058 563.46 695.058 565.364C695.058 567.285 694.675 569.059 693.91 570.687C693.145 572.314 692.055 573.925 690.639 575.521C689.223 577.099 687.538 578.816 685.585 580.672L679.408 586.702V586.971H696.303V592ZM724.916 574.129C724.916 577.01 724.688 579.59 724.232 581.868C723.793 584.131 723.093 586.051 722.133 587.63C721.173 589.209 719.919 590.413 718.373 591.243C716.827 592.073 714.955 592.488 712.758 592.488C710.007 592.488 707.737 591.764 705.946 590.315C704.156 588.851 702.829 586.751 701.967 584.017C701.104 581.266 700.673 577.97 700.673 574.129C700.673 570.288 701.063 567 701.845 564.266C702.642 561.515 703.928 559.407 705.702 557.942C707.476 556.478 709.828 555.745 712.758 555.745C715.525 555.745 717.803 556.478 719.594 557.942C721.4 559.391 722.735 561.491 723.598 564.241C724.477 566.976 724.916 570.271 724.916 574.129ZM706.459 574.129C706.459 577.14 706.654 579.655 707.045 581.673C707.452 583.691 708.119 585.205 709.047 586.214C709.975 587.207 711.212 587.703 712.758 587.703C714.304 587.703 715.541 587.207 716.469 586.214C717.396 585.221 718.064 583.715 718.471 581.697C718.894 579.679 719.105 577.156 719.105 574.129C719.105 571.134 718.902 568.628 718.495 566.609C718.088 564.591 717.421 563.077 716.493 562.068C715.565 561.043 714.32 560.53 712.758 560.53C711.195 560.53 709.95 561.043 709.022 562.068C708.111 563.077 707.452 564.591 707.045 566.609C706.654 568.628 706.459 571.134 706.459 574.129Z" fill="#E0F3FF"/>
<path d="M578.303 725H554.133V720.679L563.386 711.304C565.176 709.481 566.649 707.91 567.805 706.592C568.96 705.257 569.815 703.996 570.368 702.808C570.938 701.619 571.223 700.326 571.223 698.926C571.223 697.201 570.726 695.898 569.733 695.02C568.741 694.124 567.43 693.677 565.803 693.677C564.257 693.677 562.824 693.986 561.506 694.604C560.204 695.207 558.853 696.069 557.453 697.192L554.304 693.408C555.297 692.562 556.354 691.789 557.478 691.089C558.617 690.389 559.886 689.836 561.286 689.429C562.686 689.006 564.281 688.794 566.071 688.794C568.334 688.794 570.287 689.201 571.931 690.015C573.575 690.812 574.836 691.927 575.715 693.359C576.61 694.792 577.058 696.46 577.058 698.364C577.058 700.285 576.675 702.059 575.91 703.687C575.145 705.314 574.055 706.925 572.639 708.521C571.223 710.099 569.538 711.816 567.585 713.672L561.408 719.702V719.971H578.303V725ZM594.88 702.686C597.175 702.686 599.193 703.101 600.935 703.931C602.692 704.744 604.06 705.949 605.036 707.544C606.013 709.123 606.501 711.06 606.501 713.354C606.501 715.861 605.972 718.026 604.914 719.849C603.856 721.655 602.302 723.047 600.251 724.023C598.2 725 595.702 725.488 592.756 725.488C590.884 725.488 589.134 725.326 587.507 725C585.896 724.674 584.504 724.186 583.332 723.535V718.359C584.553 719.043 586.018 719.604 587.727 720.044C589.436 720.467 591.071 720.679 592.634 720.679C594.294 720.679 595.718 720.435 596.906 719.946C598.094 719.458 599.006 718.709 599.641 717.7C600.292 716.691 600.617 715.413 600.617 713.867C600.617 711.816 599.958 710.238 598.64 709.131C597.338 708.008 595.295 707.446 592.512 707.446C591.535 707.446 590.493 707.536 589.387 707.715C588.296 707.878 587.385 708.057 586.652 708.252L584.138 706.763L585.48 689.307H604.035V694.36H590.534L589.753 703.247C590.339 703.117 591.039 702.995 591.853 702.881C592.666 702.751 593.675 702.686 594.88 702.686Z" fill="#E0F3FF"/>
<path d="M405.936 740.461C405.936 742.072 405.61 743.472 404.959 744.66C404.308 745.848 403.413 746.825 402.273 747.59C401.15 748.339 399.848 748.876 398.367 749.201V749.372C401.215 749.73 403.364 750.625 404.812 752.058C406.277 753.49 407.01 755.386 407.01 757.746C407.01 759.813 406.513 761.66 405.521 763.288C404.528 764.899 403.006 766.169 400.955 767.097C398.904 768.024 396.268 768.488 393.045 768.488C391.108 768.488 389.31 768.334 387.649 768.024C386.006 767.715 384.443 767.219 382.962 766.535V761.433C384.476 762.181 386.087 762.759 387.796 763.166C389.505 763.573 391.124 763.776 392.654 763.776C395.633 763.776 397.757 763.223 399.026 762.116C400.296 760.993 400.931 759.447 400.931 757.478C400.931 756.208 400.597 755.166 399.93 754.353C399.279 753.539 398.261 752.928 396.878 752.521C395.511 752.115 393.745 751.911 391.58 751.911H388.431V747.297H391.604C393.672 747.297 395.332 747.053 396.585 746.564C397.838 746.06 398.742 745.368 399.295 744.489C399.865 743.61 400.149 742.585 400.149 741.413C400.149 739.883 399.653 738.695 398.66 737.849C397.667 736.986 396.194 736.555 394.241 736.555C393.037 736.555 391.938 736.693 390.945 736.97C389.969 737.246 389.065 737.596 388.235 738.02C387.405 738.443 386.616 738.898 385.867 739.387L383.108 735.407C384.459 734.398 386.071 733.544 387.942 732.844C389.814 732.144 391.995 731.794 394.485 731.794C398.147 731.794 400.971 732.583 402.957 734.162C404.943 735.725 405.936 737.824 405.936 740.461ZM435.916 750.129C435.916 753.01 435.688 755.59 435.232 757.868C434.793 760.131 434.093 762.051 433.133 763.63C432.173 765.209 430.919 766.413 429.373 767.243C427.827 768.073 425.955 768.488 423.758 768.488C421.007 768.488 418.737 767.764 416.946 766.315C415.156 764.851 413.829 762.751 412.967 760.017C412.104 757.266 411.673 753.97 411.673 750.129C411.673 746.288 412.063 743 412.845 740.266C413.642 737.515 414.928 735.407 416.702 733.942C418.476 732.478 420.828 731.745 423.758 731.745C426.525 731.745 428.803 732.478 430.594 733.942C432.4 735.391 433.735 737.491 434.598 740.241C435.477 742.976 435.916 746.271 435.916 750.129ZM417.459 750.129C417.459 753.14 417.654 755.655 418.045 757.673C418.452 759.691 419.119 761.205 420.047 762.214C420.975 763.207 422.212 763.703 423.758 763.703C425.304 763.703 426.541 763.207 427.469 762.214C428.396 761.221 429.064 759.715 429.471 757.697C429.894 755.679 430.105 753.156 430.105 750.129C430.105 747.134 429.902 744.628 429.495 742.609C429.088 740.591 428.421 739.077 427.493 738.068C426.565 737.043 425.32 736.53 423.758 736.53C422.195 736.53 420.95 737.043 420.022 738.068C419.111 739.077 418.452 740.591 418.045 742.609C417.654 744.628 417.459 747.134 417.459 750.129Z" fill="#E0F3FF"/>
<path d="M221.436 697.461C221.436 699.072 221.11 700.472 220.459 701.66C219.808 702.848 218.913 703.825 217.773 704.59C216.65 705.339 215.348 705.876 213.867 706.201V706.372C216.715 706.73 218.864 707.625 220.312 709.058C221.777 710.49 222.51 712.386 222.51 714.746C222.51 716.813 222.013 718.66 221.021 720.288C220.028 721.899 218.506 723.169 216.455 724.097C214.404 725.024 211.768 725.488 208.545 725.488C206.608 725.488 204.81 725.334 203.149 725.024C201.506 724.715 199.943 724.219 198.462 723.535V718.433C199.976 719.181 201.587 719.759 203.296 720.166C205.005 720.573 206.624 720.776 208.154 720.776C211.133 720.776 213.257 720.223 214.526 719.116C215.796 717.993 216.431 716.447 216.431 714.478C216.431 713.208 216.097 712.166 215.43 711.353C214.779 710.539 213.761 709.928 212.378 709.521C211.011 709.115 209.245 708.911 207.08 708.911H203.931V704.297H207.104C209.172 704.297 210.832 704.053 212.085 703.564C213.338 703.06 214.242 702.368 214.795 701.489C215.365 700.61 215.649 699.585 215.649 698.413C215.649 696.883 215.153 695.695 214.16 694.849C213.167 693.986 211.694 693.555 209.741 693.555C208.537 693.555 207.438 693.693 206.445 693.97C205.469 694.246 204.565 694.596 203.735 695.02C202.905 695.443 202.116 695.898 201.367 696.387L198.608 692.407C199.959 691.398 201.571 690.544 203.442 689.844C205.314 689.144 207.495 688.794 209.985 688.794C213.647 688.794 216.471 689.583 218.457 691.162C220.443 692.725 221.436 694.824 221.436 697.461ZM239.38 702.686C241.675 702.686 243.693 703.101 245.435 703.931C247.192 704.744 248.56 705.949 249.536 707.544C250.513 709.123 251.001 711.06 251.001 713.354C251.001 715.861 250.472 718.026 249.414 719.849C248.356 721.655 246.802 723.047 244.751 724.023C242.7 725 240.202 725.488 237.256 725.488C235.384 725.488 233.634 725.326 232.007 725C230.396 724.674 229.004 724.186 227.832 723.535V718.359C229.053 719.043 230.518 719.604 232.227 720.044C233.936 720.467 235.571 720.679 237.134 720.679C238.794 720.679 240.218 720.435 241.406 719.946C242.594 719.458 243.506 718.709 244.141 717.7C244.792 716.691 245.117 715.413 245.117 713.867C245.117 711.816 244.458 710.238 243.14 709.131C241.838 708.008 239.795 707.446 237.012 707.446C236.035 707.446 234.993 707.536 233.887 707.715C232.796 707.878 231.885 708.057 231.152 708.252L228.638 706.763L229.98 689.307H248.535V694.36H235.034L234.253 703.247C234.839 703.117 235.539 702.995 236.353 702.881C237.166 702.751 238.175 702.686 239.38 702.686Z" fill="#E0F3FF"/>
<path d="M97.0967 584.163H92.2627V592H86.5986V584.163H70.3633V579.817L86.6719 556.209H92.2627V579.402H97.0967V584.163ZM86.5986 579.402V570.54C86.5986 569.808 86.6068 569.067 86.623 568.318C86.6556 567.553 86.6882 566.821 86.7207 566.121C86.7533 565.421 86.7858 564.778 86.8184 564.192C86.8509 563.59 86.8753 563.094 86.8916 562.703H86.6963C86.387 563.354 86.0452 564.021 85.6709 564.705C85.2965 565.372 84.8978 566.023 84.4746 566.658L75.6855 579.402H86.5986ZM124.416 574.129C124.416 577.01 124.188 579.59 123.732 581.868C123.293 584.131 122.593 586.051 121.633 587.63C120.673 589.209 119.419 590.413 117.873 591.243C116.327 592.073 114.455 592.488 112.258 592.488C109.507 592.488 107.237 591.764 105.446 590.315C103.656 588.851 102.329 586.751 101.467 584.017C100.604 581.266 100.173 577.97 100.173 574.129C100.173 570.288 100.563 567 101.345 564.266C102.142 561.515 103.428 559.407 105.202 557.942C106.976 556.478 109.328 555.745 112.258 555.745C115.025 555.745 117.303 556.478 119.094 557.942C120.9 559.391 122.235 561.491 123.098 564.241C123.977 566.976 124.416 570.271 124.416 574.129ZM105.959 574.129C105.959 577.14 106.154 579.655 106.545 581.673C106.952 583.691 107.619 585.205 108.547 586.214C109.475 587.207 110.712 587.703 112.258 587.703C113.804 587.703 115.041 587.207 115.969 586.214C116.896 585.221 117.564 583.715 117.971 581.697C118.394 579.679 118.605 577.156 118.605 574.129C118.605 571.134 118.402 568.628 117.995 566.609C117.588 564.591 116.921 563.077 115.993 562.068C115.065 561.043 113.82 560.53 112.258 560.53C110.695 560.53 109.45 561.043 108.522 562.068C107.611 563.077 106.952 564.591 106.545 566.609C106.154 568.628 105.959 571.134 105.959 574.129Z" fill="#E0F3FF"/>
<path d="M56.0967 388.163H51.2627V396H45.5986V388.163H29.3633V383.817L45.6719 360.209H51.2627V383.402H56.0967V388.163ZM45.5986 383.402V374.54C45.5986 373.808 45.6068 373.067 45.623 372.318C45.6556 371.553 45.6882 370.821 45.7207 370.121C45.7533 369.421 45.7858 368.778 45.8184 368.192C45.8509 367.59 45.8753 367.094 45.8916 366.703H45.6963C45.387 367.354 45.0452 368.021 44.6709 368.705C44.2965 369.372 43.8978 370.023 43.4746 370.658L34.6855 383.402H45.5986ZM71.3799 373.686C73.6748 373.686 75.693 374.101 77.4346 374.931C79.1924 375.744 80.5596 376.949 81.5361 378.544C82.5127 380.123 83.001 382.06 83.001 384.354C83.001 386.861 82.472 389.026 81.4141 390.849C80.3561 392.655 78.8018 394.047 76.751 395.023C74.7002 396 72.2018 396.488 69.2559 396.488C67.3841 396.488 65.6344 396.326 64.0068 396C62.3955 395.674 61.0039 395.186 59.832 394.535V389.359C61.0527 390.043 62.5176 390.604 64.2266 391.044C65.9355 391.467 67.5713 391.679 69.1338 391.679C70.7939 391.679 72.2181 391.435 73.4062 390.946C74.5944 390.458 75.5059 389.709 76.1406 388.7C76.7917 387.691 77.1172 386.413 77.1172 384.867C77.1172 382.816 76.458 381.238 75.1396 380.131C73.8376 379.008 71.7949 378.446 69.0117 378.446C68.0352 378.446 66.9935 378.536 65.8867 378.715C64.7962 378.878 63.8848 379.057 63.1523 379.252L60.6377 377.763L61.9805 360.307H80.5352V365.36H67.0342L66.2529 374.247C66.8389 374.117 67.5387 373.995 68.3525 373.881C69.1663 373.751 70.1755 373.686 71.3799 373.686Z" fill="#E0F3FF"/>
<path d="M83.7666 207.686C86.0615 207.686 88.0798 208.101 89.8213 208.931C91.5791 209.744 92.9463 210.949 93.9229 212.544C94.8994 214.123 95.3877 216.06 95.3877 218.354C95.3877 220.861 94.8587 223.026 93.8008 224.849C92.7428 226.655 91.1885 228.047 89.1377 229.023C87.0869 230 84.5885 230.488 81.6426 230.488C79.7708 230.488 78.0212 230.326 76.3936 230C74.7822 229.674 73.3906 229.186 72.2188 228.535V223.359C73.4395 224.043 74.9043 224.604 76.6133 225.044C78.3223 225.467 79.958 225.679 81.5205 225.679C83.1807 225.679 84.6048 225.435 85.793 224.946C86.9811 224.458 87.8926 223.709 88.5273 222.7C89.1784 221.691 89.5039 220.413 89.5039 218.867C89.5039 216.816 88.8447 215.238 87.5264 214.131C86.2243 213.008 84.1816 212.446 81.3984 212.446C80.4219 212.446 79.3802 212.536 78.2734 212.715C77.1829 212.878 76.2715 213.057 75.5391 213.252L73.0244 211.763L74.3672 194.307H92.9219V199.36H79.4209L78.6396 208.247C79.2256 208.117 79.9255 207.995 80.7393 207.881C81.5531 207.751 82.5622 207.686 83.7666 207.686ZM124.416 212.129C124.416 215.01 124.188 217.59 123.732 219.868C123.293 222.131 122.593 224.051 121.633 225.63C120.673 227.209 119.419 228.413 117.873 229.243C116.327 230.073 114.455 230.488 112.258 230.488C109.507 230.488 107.237 229.764 105.446 228.315C103.656 226.851 102.329 224.751 101.467 222.017C100.604 219.266 100.173 215.97 100.173 212.129C100.173 208.288 100.563 205 101.345 202.266C102.142 199.515 103.428 197.407 105.202 195.942C106.976 194.478 109.328 193.745 112.258 193.745C115.025 193.745 117.303 194.478 119.094 195.942C120.9 197.391 122.235 199.491 123.098 202.241C123.977 204.976 124.416 208.271 124.416 212.129ZM105.959 212.129C105.959 215.14 106.154 217.655 106.545 219.673C106.952 221.691 107.619 223.205 108.547 224.214C109.475 225.207 110.712 225.703 112.258 225.703C113.804 225.703 115.041 225.207 115.969 224.214C116.896 223.221 117.564 221.715 117.971 219.697C118.394 217.679 118.605 215.156 118.605 212.129C118.605 209.134 118.402 206.628 117.995 204.609C117.588 202.591 116.921 201.077 115.993 200.068C115.065 199.043 113.82 198.53 112.258 198.53C110.695 198.53 109.45 199.043 108.522 200.068C107.611 201.077 106.952 202.591 106.545 204.609C106.154 206.628 105.959 209.134 105.959 212.129Z" fill="#E0F3FF"/>
<path d="M213.767 74.6855C216.062 74.6855 218.08 75.1006 219.821 75.9307C221.579 76.7445 222.946 77.9489 223.923 79.5439C224.899 81.1227 225.388 83.0596 225.388 85.3545C225.388 87.861 224.859 90.0257 223.801 91.8486C222.743 93.6553 221.188 95.0469 219.138 96.0234C217.087 97 214.589 97.4883 211.643 97.4883C209.771 97.4883 208.021 97.3255 206.394 97C204.782 96.6745 203.391 96.1862 202.219 95.5352V90.3594C203.439 91.043 204.904 91.6045 206.613 92.0439C208.322 92.4671 209.958 92.6787 211.521 92.6787C213.181 92.6787 214.605 92.4346 215.793 91.9463C216.981 91.458 217.893 90.7093 218.527 89.7002C219.178 88.6911 219.504 87.4134 219.504 85.8672C219.504 83.8164 218.845 82.2376 217.526 81.1309C216.224 80.0078 214.182 79.4463 211.398 79.4463C210.422 79.4463 209.38 79.5358 208.273 79.7148C207.183 79.8776 206.271 80.0566 205.539 80.252L203.024 78.7627L204.367 61.3066H222.922V66.3604H209.421L208.64 75.2471C209.226 75.1169 209.925 74.9948 210.739 74.8809C211.553 74.7507 212.562 74.6855 213.767 74.6855ZM242.38 74.6855C244.675 74.6855 246.693 75.1006 248.435 75.9307C250.192 76.7445 251.56 77.9489 252.536 79.5439C253.513 81.1227 254.001 83.0596 254.001 85.3545C254.001 87.861 253.472 90.0257 252.414 91.8486C251.356 93.6553 249.802 95.0469 247.751 96.0234C245.7 97 243.202 97.4883 240.256 97.4883C238.384 97.4883 236.634 97.3255 235.007 97C233.396 96.6745 232.004 96.1862 230.832 95.5352V90.3594C232.053 91.043 233.518 91.6045 235.227 92.0439C236.936 92.4671 238.571 92.6787 240.134 92.6787C241.794 92.6787 243.218 92.4346 244.406 91.9463C245.594 91.458 246.506 90.7093 247.141 89.7002C247.792 88.6911 248.117 87.4134 248.117 85.8672C248.117 83.8164 247.458 82.2376 246.14 81.1309C244.838 80.0078 242.795 79.4463 240.012 79.4463C239.035 79.4463 237.993 79.5358 236.887 79.7148C235.796 79.8776 234.885 80.0566 234.152 80.252L231.638 78.7627L232.98 61.3066H251.535V66.3604H238.034L237.253 75.2471C237.839 75.1169 238.539 74.9948 239.353 74.8809C240.166 74.7507 241.175 74.6855 242.38 74.6855Z" fill="#E0F3FF"/>
</svg>
