<svg width="634" height="624" viewBox="0 0 634 624" fill="none" xmlns="http://www.w3.org/2000/svg">
<path d="M308.639 53H302.877V30.0264C302.877 29.2614 302.886 28.4964 302.902 27.7314C302.918 26.9665 302.934 26.2178 302.951 25.4854C302.983 24.7529 303.024 24.0531 303.073 23.3857C302.731 23.7601 302.308 24.167 301.803 24.6064C301.315 25.0459 300.794 25.5016 300.241 25.9736L296.139 29.2451L293.258 25.6074L303.854 17.3066H308.639V53ZM344.552 53H320.382V48.6787L329.635 39.3037C331.426 37.4808 332.899 35.9102 334.054 34.5918C335.21 33.2572 336.064 31.9958 336.618 30.8076C337.187 29.6195 337.472 28.3255 337.472 26.9258C337.472 25.2005 336.976 23.8984 335.983 23.0195C334.99 22.1243 333.68 21.6768 332.052 21.6768C330.506 21.6768 329.074 21.986 327.755 22.6045C326.453 23.2067 325.102 24.0693 323.703 25.1924L320.553 21.4082C321.546 20.5618 322.604 19.7887 323.727 19.0889C324.866 18.389 326.136 17.8356 327.536 17.4287C328.935 17.0055 330.53 16.7939 332.321 16.7939C334.583 16.7939 336.536 17.2008 338.18 18.0146C339.824 18.8122 341.085 19.9271 341.964 21.3594C342.859 22.7917 343.307 24.46 343.307 26.3643C343.307 28.2848 342.925 30.0589 342.16 31.6865C341.395 33.3141 340.304 34.9255 338.888 36.5205C337.472 38.0993 335.788 39.8164 333.834 41.6719L327.658 47.7021V47.9707H344.552V53Z" fill="#E0F3FF"/>
<path d="M441.575 87.0861H435.813V64.1124C435.813 63.3475 435.821 62.5825 435.837 61.8175C435.854 61.0525 435.87 60.3038 435.886 59.5714C435.919 58.839 435.959 58.1391 436.008 57.4718C435.666 57.8462 435.243 58.2531 434.739 58.6925C434.25 59.132 433.73 59.5877 433.176 60.0597L429.075 63.3312L426.194 59.6935L436.789 51.3927H441.575V87.0861ZM476.121 59.547C476.121 61.1583 475.795 62.5581 475.144 63.7462C474.493 64.9344 473.598 65.9109 472.458 66.6759C471.335 67.4246 470.033 67.9617 468.552 68.2872V68.4581C471.4 68.8162 473.549 69.7114 474.997 71.1437C476.462 72.576 477.195 74.4721 477.195 76.8322C477.195 78.8992 476.698 80.7465 475.706 82.3741C474.713 83.9855 473.191 85.255 471.14 86.1827C469.089 87.1105 466.453 87.5743 463.23 87.5743C461.293 87.5743 459.495 87.4197 457.834 87.1105C456.191 86.8012 454.628 86.3048 453.147 85.6212V80.5187C454.661 81.2674 456.272 81.8452 457.981 82.2521C459.69 82.659 461.309 82.8624 462.839 82.8624C465.818 82.8624 467.942 82.309 469.211 81.2023C470.481 80.0792 471.116 78.533 471.116 76.5636C471.116 75.2941 470.782 74.2524 470.115 73.4386C469.464 72.6248 468.446 72.0144 467.063 71.6075C465.696 71.2006 463.93 70.9972 461.765 70.9972H458.616V66.3829H461.789C463.857 66.3829 465.517 66.1388 466.77 65.6505C468.023 65.146 468.927 64.4542 469.48 63.5753C470.05 62.6964 470.334 61.671 470.334 60.4991C470.334 58.9692 469.838 57.781 468.845 56.9347C467.852 56.0721 466.379 55.6407 464.426 55.6407C463.222 55.6407 462.123 55.7791 461.13 56.0558C460.154 56.3325 459.25 56.6824 458.42 57.1056C457.59 57.5288 456.801 57.9845 456.052 58.4728L453.293 54.4933C454.644 53.4842 456.256 52.6297 458.127 51.9298C459.999 51.2299 462.18 50.88 464.67 50.88C468.332 50.88 471.156 51.6694 473.142 53.2482C475.128 54.8107 476.121 56.9103 476.121 59.547Z" fill="#E0F3FF"/>
<path d="M533.607 182.527H527.845V159.553C527.845 158.788 527.853 158.023 527.87 157.258C527.886 156.493 527.902 155.745 527.918 155.012C527.951 154.28 527.992 153.58 528.04 152.913C527.699 153.287 527.275 153.694 526.771 154.133C526.283 154.573 525.762 155.028 525.208 155.5L521.107 158.772L518.226 155.134L528.822 146.833H533.607V182.527ZM570.814 174.69H565.98V182.527H560.316V174.69H544.081V170.344L560.389 146.736H565.98V169.929H570.814V174.69ZM560.316 169.929V161.067C560.316 160.334 560.324 159.594 560.34 158.845C560.373 158.08 560.405 157.348 560.438 156.648C560.47 155.948 560.503 155.305 560.536 154.719C560.568 154.117 560.593 153.621 560.609 153.23H560.414C560.104 153.881 559.762 154.548 559.388 155.232C559.014 155.899 558.615 156.55 558.192 157.185L549.403 169.929H560.316Z" fill="#E0F3FF"/>
<path d="M580.191 318.871H574.429V295.897C574.429 295.132 574.438 294.367 574.454 293.602C574.47 292.837 574.486 292.089 574.503 291.356C574.535 290.624 574.576 289.924 574.625 289.257C574.283 289.631 573.86 290.038 573.355 290.477C572.867 290.917 572.346 291.373 571.793 291.845L567.691 295.116L564.81 291.478L575.406 283.178H580.191V318.871ZM604.068 296.557C606.363 296.557 608.381 296.972 610.123 297.802C611.881 298.615 613.248 299.82 614.224 301.415C615.201 302.994 615.689 304.931 615.689 307.225C615.689 309.732 615.16 311.897 614.102 313.72C613.044 315.526 611.49 316.918 609.439 317.894C607.388 318.871 604.89 319.359 601.944 319.359C600.072 319.359 598.323 319.196 596.695 318.871C595.084 318.545 593.692 318.057 592.52 317.406V312.23C593.741 312.914 595.206 313.475 596.915 313.915C598.624 314.338 600.259 314.55 601.822 314.55C603.482 314.55 604.906 314.306 606.094 313.817C607.283 313.329 608.194 312.58 608.829 311.571C609.48 310.562 609.805 309.284 609.805 307.738C609.805 305.687 609.146 304.109 607.828 303.002C606.526 301.879 604.483 301.317 601.7 301.317C600.723 301.317 599.682 301.407 598.575 301.586C597.484 301.749 596.573 301.928 595.841 302.123L593.326 300.634L594.669 283.178H613.223V288.231H599.722L598.941 297.118C599.527 296.988 600.227 296.866 601.041 296.752C601.855 296.622 602.864 296.557 604.068 296.557Z" fill="#E0F3FF"/>
<path d="M533.607 471.122H527.845V448.148C527.845 447.383 527.853 446.618 527.87 445.853C527.886 445.088 527.902 444.34 527.918 443.607C527.951 442.875 527.992 442.175 528.04 441.508C527.699 441.882 527.275 442.289 526.771 442.728C526.283 443.168 525.762 443.623 525.208 444.095L521.107 447.367L518.226 443.729L528.822 435.428H533.607V471.122ZM545.399 455.912C545.399 453.812 545.545 451.745 545.838 449.711C546.148 447.676 546.668 445.772 547.401 443.998C548.133 442.224 549.142 440.661 550.428 439.31C551.73 437.959 553.366 436.901 555.335 436.136C557.305 435.355 559.673 434.965 562.44 434.965C563.156 434.965 563.962 434.997 564.857 435.062C565.752 435.127 566.493 435.233 567.079 435.38V440.14C566.444 439.961 565.744 439.823 564.979 439.725C564.23 439.628 563.482 439.579 562.733 439.579C559.738 439.579 557.402 440.149 555.726 441.288C554.05 442.411 552.853 443.957 552.137 445.927C551.421 447.88 551.006 450.118 550.892 452.64H551.185C551.673 451.827 552.284 451.102 553.016 450.468C553.748 449.833 554.644 449.328 555.702 448.954C556.76 448.563 557.988 448.368 559.388 448.368C561.471 448.368 563.286 448.807 564.832 449.686C566.379 450.549 567.567 451.802 568.397 453.446C569.243 455.09 569.666 457.084 569.666 459.427C569.666 461.95 569.186 464.123 568.226 465.946C567.282 467.769 565.931 469.169 564.173 470.145C562.432 471.122 560.357 471.61 557.948 471.61C556.174 471.61 554.522 471.285 552.992 470.634C551.478 469.983 550.151 469.006 549.012 467.704C547.873 466.402 546.986 464.774 546.351 462.821C545.716 460.852 545.399 458.549 545.399 455.912ZM557.85 466.874C559.706 466.874 561.195 466.272 562.318 465.067C563.457 463.846 564.027 461.983 564.027 459.476C564.027 457.442 563.522 455.83 562.513 454.642C561.52 453.454 560.023 452.86 558.021 452.86C556.654 452.86 555.457 453.153 554.432 453.739C553.407 454.325 552.609 455.066 552.039 455.961C551.486 456.856 551.209 457.767 551.209 458.695C551.209 459.639 551.348 460.591 551.624 461.552C551.901 462.512 552.316 463.399 552.87 464.213C553.423 465.01 554.115 465.653 554.945 466.141C555.775 466.63 556.743 466.874 557.85 466.874Z" fill="#E0F3FF"/>
<path d="M441.575 574.516H435.813V551.542C435.813 550.778 435.821 550.013 435.837 549.248C435.854 548.483 435.87 547.734 435.886 547.001C435.919 546.269 435.959 545.569 436.008 544.902C435.666 545.276 435.243 545.683 434.739 546.123C434.25 546.562 433.73 547.018 433.176 547.49L429.075 550.761L426.194 547.124L436.789 538.823H441.575V574.516ZM457.395 574.516L471.409 543.852H452.878V538.823H477.585V542.753L463.572 574.516H457.395Z" fill="#E0F3FF"/>
<path d="M308.639 608.602H302.877V585.629C302.877 584.864 302.886 584.099 302.902 583.334C302.918 582.569 302.934 581.82 302.951 581.088C302.983 580.355 303.024 579.655 303.073 578.988C302.731 579.362 302.308 579.769 301.803 580.209C301.315 580.648 300.794 581.104 300.241 581.576L296.139 584.847L293.258 581.21L303.854 572.909H308.639V608.602ZM332.418 572.421C334.485 572.421 336.349 572.746 338.009 573.397C339.669 574.032 340.988 574.984 341.964 576.254C342.941 577.523 343.429 579.094 343.429 580.965C343.429 582.414 343.128 583.675 342.526 584.75C341.94 585.824 341.142 586.768 340.133 587.582C339.124 588.379 337.993 589.087 336.74 589.706C338.139 590.389 339.425 591.179 340.597 592.074C341.785 592.953 342.737 593.986 343.454 595.174C344.186 596.363 344.552 597.754 344.552 599.349C344.552 601.351 344.039 603.085 343.014 604.549C342.005 605.998 340.597 607.121 338.79 607.919C336.984 608.7 334.876 609.09 332.467 609.09C329.879 609.09 327.674 608.708 325.851 607.943C324.028 607.178 322.645 606.088 321.701 604.672C320.757 603.239 320.285 601.53 320.285 599.545C320.285 597.901 320.61 596.477 321.261 595.272C321.912 594.068 322.783 593.026 323.873 592.147C324.98 591.268 326.193 590.528 327.511 589.925C326.388 589.258 325.363 588.509 324.435 587.679C323.507 586.833 322.767 585.865 322.213 584.774C321.676 583.667 321.408 582.39 321.408 580.941C321.408 579.086 321.904 577.531 322.897 576.278C323.89 575.008 325.216 574.048 326.876 573.397C328.553 572.746 330.4 572.421 332.418 572.421ZM325.753 599.325C325.753 600.887 326.307 602.173 327.414 603.182C328.52 604.191 330.172 604.696 332.37 604.696C334.551 604.696 336.211 604.2 337.35 603.207C338.489 602.214 339.059 600.904 339.059 599.276C339.059 598.234 338.766 597.315 338.18 596.517C337.61 595.72 336.837 595.012 335.861 594.393C334.9 593.758 333.834 593.172 332.663 592.635L331.881 592.318C330.612 592.855 329.521 593.465 328.61 594.149C327.698 594.816 326.99 595.573 326.486 596.42C325.997 597.266 325.753 598.234 325.753 599.325ZM332.37 576.839C330.791 576.839 329.489 577.23 328.463 578.011C327.454 578.776 326.95 579.883 326.95 581.332C326.95 582.357 327.194 583.236 327.682 583.968C328.187 584.701 328.862 585.336 329.708 585.873C330.555 586.394 331.491 586.882 332.516 587.338C333.509 586.898 334.404 586.418 335.202 585.897C336.015 585.36 336.658 584.725 337.13 583.993C337.619 583.244 337.863 582.349 337.863 581.307C337.863 579.875 337.35 578.776 336.325 578.011C335.316 577.23 333.997 576.839 332.37 576.839Z" fill="#E0F3FF"/>
<path d="M165.478 574.516H159.716V551.542C159.716 550.778 159.724 550.013 159.741 549.248C159.757 548.483 159.773 547.734 159.789 547.001C159.822 546.269 159.863 545.569 159.911 544.902C159.57 545.276 159.146 545.683 158.642 546.123C158.154 546.562 157.633 547.018 157.079 547.49L152.978 550.761L150.097 547.124L160.693 538.823H165.478V574.516ZM201.342 554.033C201.342 556.149 201.187 558.224 200.878 560.258C200.585 562.293 200.064 564.197 199.316 565.971C198.583 567.745 197.566 569.316 196.264 570.683C194.978 572.034 193.351 573.092 191.381 573.857C189.412 574.622 187.035 575.004 184.252 575.004C183.552 575.004 182.739 574.964 181.811 574.882C180.899 574.817 180.151 574.72 179.565 574.589V569.804C180.183 569.983 180.875 570.13 181.64 570.244C182.421 570.341 183.194 570.39 183.959 570.39C186.97 570.39 189.314 569.829 190.991 568.706C192.683 567.583 193.88 566.036 194.579 564.067C195.296 562.097 195.702 559.86 195.8 557.353H195.507C195.035 558.134 194.441 558.85 193.725 559.501C193.009 560.136 192.122 560.649 191.064 561.04C190.006 561.414 188.72 561.601 187.206 561.601C185.156 561.601 183.365 561.17 181.835 560.307C180.322 559.444 179.142 558.191 178.295 556.547C177.465 554.887 177.05 552.893 177.05 550.566C177.05 548.043 177.53 545.87 178.491 544.047C179.451 542.224 180.81 540.825 182.568 539.848C184.326 538.855 186.393 538.359 188.769 538.359C190.559 538.359 192.211 538.684 193.725 539.335C195.255 539.97 196.589 540.947 197.729 542.265C198.868 543.567 199.755 545.203 200.39 547.172C201.025 549.125 201.342 551.412 201.342 554.033ZM188.842 543.095C187.035 543.095 185.562 543.706 184.423 544.926C183.284 546.131 182.714 547.986 182.714 550.493C182.714 552.527 183.202 554.139 184.179 555.327C185.156 556.515 186.653 557.109 188.671 557.109C190.071 557.109 191.275 556.824 192.284 556.254C193.31 555.668 194.099 554.928 194.653 554.033C195.222 553.138 195.507 552.226 195.507 551.298C195.507 550.338 195.369 549.378 195.092 548.417C194.832 547.457 194.425 546.578 193.871 545.781C193.318 544.983 192.618 544.34 191.772 543.852C190.942 543.347 189.965 543.095 188.842 543.095Z" fill="#E0F3FF"/>
<path d="M73.9282 471.122H49.7582V466.801L59.0112 457.426C60.8015 455.603 62.2745 454.032 63.4301 452.714C64.5857 451.379 65.4402 450.118 65.9936 448.929C66.5633 447.741 66.8481 446.447 66.8481 445.048C66.8481 443.322 66.3517 442.02 65.3588 441.141C64.366 440.246 63.0558 439.799 61.4282 439.799C59.8819 439.799 58.4496 440.108 57.1313 440.726C55.8292 441.329 54.4783 442.191 53.0786 443.314L49.9291 439.53C50.922 438.684 51.9799 437.911 53.103 437.211C54.2423 436.511 55.5118 435.957 56.9116 435.551C58.3113 435.127 59.9064 434.916 61.6967 434.916C63.9591 434.916 65.9122 435.323 67.5561 436.136C69.2 436.934 70.4614 438.049 71.3403 439.481C72.2355 440.913 72.683 442.582 72.683 444.486C72.683 446.407 72.3006 448.181 71.5356 449.808C70.7706 451.436 69.6801 453.047 68.2641 454.642C66.8481 456.221 65.1635 457.938 63.2104 459.794L57.0336 465.824V466.093H73.9282V471.122ZM102.541 453.251C102.541 456.132 102.314 458.711 101.858 460.99C101.418 463.252 100.719 465.173 99.7582 466.752C98.798 468.33 97.5447 469.535 95.9985 470.365C94.4523 471.195 92.5805 471.61 90.3832 471.61C87.6326 471.61 85.3621 470.886 83.5717 469.437C81.7814 467.972 80.4549 465.873 79.5922 463.138C78.7296 460.388 78.2983 457.092 78.2983 453.251C78.2983 449.41 78.6889 446.122 79.4702 443.387C80.2677 440.637 81.5535 438.529 83.3276 437.064C85.1017 435.599 87.4536 434.867 90.3832 434.867C93.1502 434.867 95.4288 435.599 97.2192 437.064C99.0258 438.513 100.36 440.612 101.223 443.363C102.102 446.097 102.541 449.393 102.541 453.251ZM84.0844 453.251C84.0844 456.262 84.2797 458.776 84.6703 460.795C85.0773 462.813 85.7446 464.327 86.6723 465.336C87.6 466.329 88.837 466.825 90.3832 466.825C91.9295 466.825 93.1664 466.329 94.0942 465.336C95.0219 464.343 95.6892 462.837 96.0961 460.819C96.5193 458.801 96.7309 456.278 96.7309 453.251C96.7309 450.256 96.5274 447.749 96.1205 445.731C95.7136 443.713 95.0463 442.199 94.1186 441.19C93.1909 440.165 91.9457 439.652 90.3832 439.652C88.8207 439.652 87.5756 440.165 86.6479 441.19C85.7364 442.199 85.0773 443.713 84.6703 445.731C84.2797 447.749 84.0844 450.256 84.0844 453.251Z" fill="#E0F3FF"/>
<path d="M42.1146 318.871H17.9446V314.55L27.1976 305.175C28.9879 303.352 30.4609 301.781 31.6165 300.463C32.7721 299.128 33.6266 297.867 34.18 296.679C34.7497 295.49 35.0345 294.196 35.0345 292.797C35.0345 291.071 34.5381 289.769 33.5452 288.891C32.5524 287.995 31.2422 287.548 29.6146 287.548C28.0683 287.548 26.636 287.857 25.3177 288.475C24.0156 289.078 22.6647 289.94 21.265 291.063L18.1155 287.279C19.1084 286.433 20.1663 285.66 21.2894 284.96C22.4287 284.26 23.6982 283.707 25.098 283.3C26.4977 282.877 28.0928 282.665 29.8831 282.665C32.1455 282.665 34.0986 283.072 35.7425 283.886C37.3864 284.683 38.6478 285.798 39.5267 287.23C40.4219 288.663 40.8694 290.331 40.8694 292.235C40.8694 294.156 40.487 295.93 39.722 297.557C38.957 299.185 37.8665 300.796 36.4505 302.391C35.0345 303.97 33.3499 305.687 31.3968 307.543L25.22 313.573V313.842H42.1146V318.871ZM63.428 318.871H57.6663V295.897C57.6663 295.132 57.6745 294.367 57.6907 293.602C57.707 292.837 57.7233 292.089 57.7396 291.356C57.7721 290.624 57.8128 289.924 57.8616 289.257C57.5198 289.631 57.0967 290.038 56.5921 290.477C56.1038 290.917 55.583 291.373 55.0296 291.845L50.928 295.116L48.0472 291.478L58.6429 283.178H63.428V318.871Z" fill="#E0F3FF"/>
<path d="M73.9282 190.48H49.7582V186.159L59.0112 176.784C60.8015 174.961 62.2745 173.39 63.4301 172.072C64.5857 170.737 65.4402 169.476 65.9936 168.288C66.5633 167.1 66.8481 165.806 66.8481 164.406C66.8481 162.681 66.3517 161.379 65.3588 160.5C64.366 159.605 63.0558 159.157 61.4282 159.157C59.8819 159.157 58.4496 159.466 57.1313 160.085C55.8292 160.687 54.4783 161.55 53.0786 162.673L49.9291 158.888C50.922 158.042 51.9799 157.269 53.103 156.569C54.2423 155.869 55.5118 155.316 56.9116 154.909C58.3113 154.486 59.9064 154.274 61.6967 154.274C63.9591 154.274 65.9122 154.681 67.5561 155.495C69.2 156.292 70.4614 157.407 71.3403 158.84C72.2355 160.272 72.683 161.94 72.683 163.844C72.683 165.765 72.3006 167.539 71.5356 169.167C70.7706 170.794 69.6801 172.406 68.2641 174.001C66.8481 175.58 65.1635 177.297 63.2104 179.152L57.0336 185.182V185.451H73.9282V190.48ZM102.541 190.48H78.3715V186.159L87.6245 176.784C89.4148 174.961 90.8878 173.39 92.0434 172.072C93.199 170.737 94.0535 169.476 94.6069 168.288C95.1765 167.1 95.4614 165.806 95.4614 164.406C95.4614 162.681 94.9649 161.379 93.9721 160.5C92.9793 159.605 91.669 159.157 90.0414 159.157C88.4952 159.157 87.0629 159.466 85.7446 160.085C84.4425 160.687 83.0916 161.55 81.6918 162.673L78.5424 158.888C79.5353 158.042 80.5932 157.269 81.7162 156.569C82.8556 155.869 84.1251 155.316 85.5248 154.909C86.9246 154.486 88.5196 154.274 90.31 154.274C92.5724 154.274 94.5255 154.681 96.1694 155.495C97.8133 156.292 99.0746 157.407 99.9536 158.84C100.849 160.272 101.296 161.94 101.296 163.844C101.296 165.765 100.914 167.539 100.149 169.167C99.3839 170.794 98.2934 172.406 96.8774 174.001C95.4614 175.58 93.7768 177.297 91.8237 179.152L85.6469 185.182V185.451H102.541V190.48Z" fill="#E0F3FF"/>
<path d="M175.05 87.0861H150.88V82.7648L160.133 73.3898C161.923 71.5669 163.396 69.9962 164.552 68.6779C165.708 67.3432 166.562 66.0818 167.116 64.8937C167.685 63.7055 167.97 62.4116 167.97 61.0118C167.97 59.2866 167.474 57.9845 166.481 57.1056C165.488 56.2104 164.178 55.7628 162.55 55.7628C161.004 55.7628 159.572 56.0721 158.253 56.6906C156.951 57.2928 155.6 58.1554 154.201 59.2784L151.051 55.4943C152.044 54.6479 153.102 53.8748 154.225 53.1749C155.364 52.4751 156.634 51.9217 158.034 51.5148C159.433 51.0916 161.028 50.88 162.819 50.88C165.081 50.88 167.034 51.2869 168.678 52.1007C170.322 52.8982 171.583 54.0131 172.462 55.4454C173.357 56.8777 173.805 58.546 173.805 60.4503C173.805 62.3709 173.423 64.145 172.658 65.7726C171.893 67.4002 170.802 69.0115 169.386 70.6066C167.97 72.1853 166.285 73.9025 164.332 75.7579L158.156 81.7882V82.0568H175.05V87.0861ZM202.296 59.547C202.296 61.1583 201.971 62.5581 201.32 63.7462C200.669 64.9344 199.773 65.9109 198.634 66.6759C197.511 67.4246 196.209 67.9617 194.728 68.2872V68.4581C197.576 68.8162 199.725 69.7114 201.173 71.1437C202.638 72.576 203.37 74.4721 203.37 76.8322C203.37 78.8992 202.874 80.7465 201.881 82.3741C200.888 83.9855 199.367 85.255 197.316 86.1827C195.265 87.1105 192.628 87.5743 189.406 87.5743C187.469 87.5743 185.67 87.4197 184.01 87.1105C182.366 86.8012 180.804 86.3048 179.323 85.6212V80.5187C180.836 81.2674 182.448 81.8452 184.157 82.2521C185.866 82.659 187.485 82.8624 189.015 82.8624C191.993 82.8624 194.117 82.309 195.387 81.2023C196.657 80.0792 197.291 78.533 197.291 76.5636C197.291 75.2941 196.958 74.2524 196.29 73.4386C195.639 72.6248 194.622 72.0144 193.239 71.6075C191.871 71.2006 190.105 70.9972 187.941 70.9972H184.791V66.3829H187.965C190.032 66.3829 191.692 66.1388 192.946 65.6505C194.199 65.146 195.102 64.4542 195.656 63.5753C196.225 62.6964 196.51 61.671 196.51 60.4991C196.51 58.9692 196.014 57.781 195.021 56.9347C194.028 56.0721 192.555 55.6407 190.602 55.6407C189.397 55.6407 188.299 55.7791 187.306 56.0558C186.329 56.3325 185.426 56.6824 184.596 57.1056C183.766 57.5288 182.977 57.9845 182.228 58.4728L179.469 54.4933C180.82 53.4842 182.431 52.6297 184.303 51.9298C186.175 51.2299 188.356 50.88 190.846 50.88C194.508 50.88 197.332 51.6694 199.318 53.2482C201.303 54.8107 202.296 56.9103 202.296 59.547Z" fill="#E0F3FF"/>
</svg>
