<svg id="_Слой_1" data-name="Слой 1" style="width: 400px; height: 400px" xmlns="http://www.w3.org/2000/svg" viewBox="0 0 200 200">
    <defs>
        <style>
        .cls-1 {
            fill: #212121;
        }
        </style>
    </defs>
    <path class="cls-1" d="m100,200C44.86,200,0,155.14,0,100S44.86,0,100,0s100,44.86,100,100-44.86,100-100,100ZM100,1C45.41,1,1,45.41,1,100s44.41,99,99,99,99-44.41,99-99S154.59,1,100,1Z"/>
    <path class="cls-1" d="m33.07,26.39l5.32,5.91c.24-.22.5-.43.75-.65l-5.33-5.92-.74.67Zm21.61-5.91l-3.98-6.9-.86.5,3.98,6.9c.29-.17.57-.33.86-.5Zm-13.55-.68l4.68,6.44c.27-.2.54-.38.81-.58l-4.68-6.45-.81.58Zm40.33-9.46l-1.65-7.77-.97.21,1.65,7.78c.32-.07.64-.16.97-.22Zm-18.23,5.83l-3.23-7.26-.91.4,3.24,7.27c.3-.14.6-.28.91-.41Zm8.96-3.39l-2.45-7.55-.95.31,2.46,7.57c.31-.1.63-.22.94-.32ZM20.99,53.8l-6.89-3.98-.5.86,6.89,3.98c.16-.29.33-.58.5-.86Zm-7.89,17.43l-7.55-2.45-.31.95,7.54,2.45c.1-.32.21-.63.32-.94Zm-2.53,9.24l-7.76-1.65-.21.97,7.75,1.65c.07-.33.15-.65.22-.97Zm-1.55,9.46l-7.9-.83-.1.99,7.89.83c.03-.33.08-.66.11-.99ZM90.93,8.91l-.83-7.92-.99.1.83,7.92c.33-.04.66-.08.99-.11ZM16.59,62.31l-7.26-3.23-.4.91,7.25,3.23c.13-.3.27-.6.41-.91Zm9.66-16.52l-6.43-4.67-.58.81,6.44,4.68c.19-.27.38-.54.58-.81Zm-.51-11.99l5.92,5.33c.22-.25.43-.5.66-.75l-5.91-5.32-.67.74Zm127.66-8.12c.27.19.54.38.81.58l4.71-6.48-.81-.58-4.72,6.49Zm-53.9-17.2c.17,0,.33-.01.5-.01s.33.01.5.01V.5h-1v7.97Zm80.01,46.2l6.94-4.01-.5-.86-6.94,4.01c.17.29.33.58.5.86Zm-5.18-8.06l6.49-4.72-.58-.81-6.48,4.71c.2.27.38.54.58.81Zm15.32,34.84l7.81-1.66-.21-.97-7.83,1.66c.07.32.16.64.22.97Zm-2.43-9.26l7.6-2.47-.31-.95-7.61,2.47c.1.32.22.62.32.94Zm3.87,18.74l7.95-.84-.1-.99-7.96.84c.04.33.08.66.11.99Zm-16.78-57.15l-.67-.74-5.95,5.36c.22.25.43.5.65.75l5.96-5.37Zm9.52,29.46l7.31-3.25-.4-.91-7.31,3.26c.14.3.28.6.41.9ZM118.57,10.35c.33.07.65.15.97.22l1.66-7.83-.97-.21-1.66,7.81Zm42.31,21.31c.25.22.5.43.75.66l5.36-5.95-.74-.67-5.37,5.96Zm-51.78-22.75c.33.03.66.08.99.11l.84-7.97-.99-.1-.84,7.96Zm18.74,3.87c.32.1.63.21.94.32l2.47-7.61-.95-.31-2.47,7.6ZM8.46,100c0-.17.01-.34.01-.5H.53v1h7.94c0-.16-.01-.33-.01-.49ZM145.35,20.49c.29.16.58.33.86.5l4.01-6.94-.86-.5-4.01,6.94Zm-8.55-4.31c.3.13.6.27.91.41l3.26-7.32-.91-.4-3.25,7.31ZM49.85,185.9l.86.5,3.97-6.88c-.29-.16-.58-.33-.86-.5l-3.97,6.88Zm103.56-11.57l4.7,6.46.81-.58-4.69-6.46c-.27.2-.54.38-.81.58Zm7.48-5.99l5.35,5.94.74-.67-5.34-5.93c-.24.22-.5.44-.75.66Zm6.82-6.73l5.93,5.34.67-.74-5.94-5.35c-.22.25-.43.5-.66.75Zm-22.36,17.9l3.99,6.91.86-.5-3.99-6.91c-.29.17-.57.33-.86.5Zm-17.52,7.71l2.46,7.57.95-.31-2.46-7.58c-.32.1-.63.22-.94.32Zm8.96-3.4l3.24,7.28.91-.4-3.24-7.29c-.3.14-.6.28-.91.41Zm36.98-29.63l6.46,4.7.58-.81-6.47-4.7c-.19.27-.38.54-.58.81Zm15.67-34.69l7.82,1.66.21-.97-7.8-1.66c-.07.33-.15.65-.22.97Zm1.54-9.45l7.96.84.1-.99-7.95-.84c-.03.33-.07.66-.11.99Zm-72.43,79.6l1.65,7.78.97-.21-1.66-7.79c-.32.07-.64.16-.97.22Zm60.47-43.47l6.92,4,.5-.86-6.92-4c-.16.29-.33.58-.5.86Zm12.5-46.69c0,.17.01.33.01.5s-.01.33-.01.49h8.01v-1h-8.01Zm-4.62,29.25l7.6,2.47.31-.95-7.59-2.47c-.1.32-.21.63-.32.94Zm-3.48,8.92l7.3,3.25.4-.91-7.29-3.25c-.13.3-.27.6-.41.91ZM12.78,127.82l-7.53,2.45.31.95,7.54-2.45c-.1-.32-.22-.63-.32-.94Zm12.89,25.58l-6.43,4.67.58.81,6.42-4.67c-.2-.27-.38-.54-.58-.81Zm-5.18-8.06l-6.87,3.97.5.86,6.87-3.97c-.17-.29-.33-.57-.5-.86Zm5.27,20.86l.67.74,5.9-5.31c-.22-.24-.43-.5-.66-.75l-5.91,5.32Zm-9.58-29.41l-7.24,3.22.4.91,7.25-3.23c-.14-.3-.28-.6-.41-.9Zm-5.83-18.24l-7.74,1.64.21.97,7.76-1.65c-.07-.32-.16-.64-.22-.97Zm98.74,72.55l.83,7.92.99-.1-.83-7.93c-.33.04-.66.08-.99.11ZM8.91,109.07l-7.89.83.1.99,7.89-.83c-.04-.33-.08-.66-.11-.99Zm24.17,64.53l.74.67,5.32-5.9c-.25-.22-.5-.43-.75-.65l-5.31,5.89Zm8.06,6.59l.81.58,4.67-6.43c-.27-.19-.54-.38-.81-.58l-4.67,6.42Zm58.37,11.34v7.98h1v-7.98c-.17,0-.33.01-.5.01s-.33-.01-.5-.01Zm-20.66,5.67l.97.21,1.65-7.74c-.33-.07-.64-.15-.97-.22l-1.65,7.76Zm10.28,1.69l.99.1.83-7.89c-.33-.03-.66-.07-.99-.11l-.83,7.9Zm-30.03-8.21l.91.4,3.23-7.25c-.3-.13-.6-.27-.91-.41l-3.23,7.25Zm9.7,3.78l.95.31,2.45-7.53c-.32-.1-.63-.21-.94-.32l-2.45,7.54Z"/>
    <path class="cls-1" d="m14.43,100c0-.5.03-1,.04-1.5H.53v2.99h13.94c0-.5-.04-.99-.04-1.49ZM58.54,25.18l-6.98-12.09-2.59,1.49,6.98,12.09c.85-.51,1.72-1.01,2.59-1.49ZM13.11,51.54l12.09,6.98c.48-.87.98-1.74,1.49-2.59l-12.08-6.98-1.49,2.58Zm173.85-.02l-1.49-2.58-12.14,7.01c.51.85,1,1.72,1.49,2.59l12.14-7.01ZM98.51,14.47c.5,0,.99-.04,1.49-.04s.99.03,1.49.04V.5h-2.99v13.97Zm42.97,10.72c.87.49,1.74.98,2.59,1.49l7.01-12.14-2.59-1.49-7.01,12.14ZM48.98,185.4l2.59,1.49,6.97-12.07c-.87-.49-1.74-.98-2.59-1.49l-6.97,12.07Zm124.35-41.35l12.12,7,1.49-2.58-12.12-7c-.48.87-.98,1.74-1.49,2.59Zm-160.22,4.39l1.49,2.58,12.07-6.97c-.51-.85-1-1.72-1.49-2.59l-12.07,6.97Zm172.42-49.94c0,.5.04,1,.04,1.5s-.03.99-.04,1.49h14v-2.99h-14Zm-87.02,87.03v13.97h2.99v-13.97c-.5,0-.99.04-1.49.04s-.99-.03-1.49-.04Zm42.97-10.72l6.99,12.11,2.59-1.49-6.99-12.11c-.85.51-1.72,1.01-2.59,1.49Z"/>
    <path class="cls-1" d="m100,192.04c-50.75,0-92.04-41.29-92.04-92.04S49.25,7.96,100,7.96s92.04,41.29,92.04,92.04-41.29,92.04-92.04,92.04Zm0-183.08C49.8,8.96,8.96,49.8,8.96,100s40.84,91.04,91.04,91.04,91.04-40.84,91.04-91.04S150.2,8.96,100,8.96Z"/>
    <path class="cls-1" d="m100,160.2c-33.19,0-60.2-27.01-60.2-60.2s27-60.2,60.2-60.2,60.2,27.01,60.2,60.2-27,60.2-60.2,60.2Zm0-119.4c-32.65,0-59.2,26.56-59.2,59.2s26.56,59.2,59.2,59.2,59.2-26.56,59.2-59.2-26.56-59.2-59.2-59.2Z"/>
</svg>